<?xml version="1.0" encoding="UTF-8" standalone="no"?>
<!-- Created with Inkscape (http://www.inkscape.org/) -->

<svg
   xmlns:dc="http://purl.org/dc/elements/1.1/"
   xmlns:cc="http://creativecommons.org/ns#"
   xmlns:rdf="http://www.w3.org/1999/02/22-rdf-syntax-ns#"
   xmlns:svg="http://www.w3.org/2000/svg"
   xmlns="http://www.w3.org/2000/svg"
   xmlns:sodipodi="http://sodipodi.sourceforge.net/DTD/sodipodi-0.dtd"
   xmlns:inkscape="http://www.inkscape.org/namespaces/inkscape"
   width="210mm"
   height="297mm"
   id="svg2"
   version="1.1"
   inkscape:version="0.48.4 r9939"
   inkscape:export-filename="/home/kumadasu/dl/digits/kumadas-handwrite/0.png"
   inkscape:export-xdpi="50"
   inkscape:export-ydpi="50"
   sodipodi:docname="0.svg">
  <defs
     id="defs4" />
  <sodipodi:namedview
     id="base"
     pagecolor="#ffffff"
     bordercolor="#666666"
     borderopacity="1.0"
     inkscape:pageopacity="0.0"
     inkscape:pageshadow="2"
     inkscape:zoom="0.35"
     inkscape:cx="-765"
     inkscape:cy="540"
     inkscape:document-units="px"
     inkscape:current-layer="layer1"
     showgrid="false"
     inkscape:window-width="1920"
     inkscape:window-height="1056"
     inkscape:window-x="0"
     inkscape:window-y="24"
     inkscape:window-maximized="1" />
  <metadata
     id="metadata7">
    <rdf:RDF>
      <cc:Work
         rdf:about="">
        <dc:format>image/svg+xml</dc:format>
        <dc:type
           rdf:resource="http://purl.org/dc/dcmitype/StillImage" />
        <dc:title></dc:title>
      </cc:Work>
    </rdf:RDF>
  </metadata>
  <g
     inkscape:label="レイヤー 1"
     inkscape:groupmode="layer"
     id="layer1">
    <path
       style="fill:none;stroke:#000000;stroke-width:30;stroke-linecap:butt;stroke-linejoin:miter;stroke-opacity:1;stroke-miterlimit:4;stroke-dasharray:none"
       d="m 365.71429,318.07647 c -29.52381,0 -59.04762,0 -88.57143,0 -8.57143,0 -17.75592,-3.18335 -25.71429,0 -7.50322,3.00129 -10.48359,12.56461 -17.14286,17.14286 -8.77435,6.03236 -19.96005,8.02289 -28.57142,14.28571 -12.53836,9.1188 -23.03081,20.76603 -34.28572,31.42857 -12.71093,12.04194 -24.23579,25.31139 -37.14286,37.14286 -9.93198,9.10432 -22.24865,15.92587 -28.57142,28.57143 -2.17177,4.34352 -1.22383,9.71242 -2.85715,14.28571 -1.58094,4.42664 -25.626832,56.77557 -25.714283,57.14286 -2.20591,9.26482 2.548989,19.39507 0,28.57143 -2.404711,8.65696 -11.881003,14.20018 -14.285714,22.85714 -2.548989,9.17636 0,19.04762 0,28.57143 0,8.57143 0,17.14286 0,25.71428 0,24.76191 0,49.52381 0,74.28572 0,53.16626 -1.212183,0.9517 2.857143,45.71428 0.344898,3.79388 -1.07492,7.77385 0,11.42858 3.742973,12.72611 8.607092,25.15465 14.285714,37.14285 2.939976,6.20662 7.89516,11.25384 11.428571,17.14286 5.044818,8.40803 8.846679,17.55573 14.285719,25.71429 4.12604,6.18906 11.35561,10.30595 14.28571,17.14285 3.02465,7.05751 -0.1675,15.79964 2.85714,22.85715 2.93011,6.8369 9.30973,11.61398 14.28572,17.14285 6.26134,6.95705 17.95151,18.00541 25.71428,22.85715 2.55391,1.59619 6.69004,0.5054 8.57143,2.85714 2.45303,3.06629 -0.55224,9.48035 2.85714,11.42857 4.96139,2.83508 11.83728,-2.12223 17.14286,0 5.00215,2.00086 6.50543,9.24051 11.42857,11.42857 4.35149,1.93399 9.52381,0 14.28572,0 8.57143,0 17.14285,0 25.71428,0 9.52381,0 19.04762,0 28.57143,0 4.76191,0 9.8644,1.76853 14.28572,0 5.66204,-2.26482 9.56595,-7.56695 14.28571,-11.42857 5.75695,-4.71023 11.29396,-9.69015 17.14286,-14.28571 75.11093,-59.01574 -20.62315,18.17218 40,-31.42858 0.0547,-0.0448 23.42328,-18.98177 25.71428,-20 4.43766,-1.97229 10.55507,0.25173 14.28572,-2.85714 3.01662,-2.51385 0.50108,-8.28716 2.85714,-11.42857 3.65893,-4.87857 9.11444,-8.19652 14.28571,-11.42857 2.55391,-1.5962 6.90085,-0.35126 8.57143,-2.85714 2.69374,-4.04061 0.35865,-10.12155 2.85715,-14.28572 3.46479,-5.77466 9.78067,-9.28011 14.28571,-14.28571 4.07949,-4.53277 7.52459,-9.60094 11.42857,-14.28572 5.62115,-6.74538 11.78928,-13.04035 17.14286,-20 4.18732,-5.44351 7.13834,-11.78007 11.42857,-17.14285 3.36553,-4.20692 8.57321,-6.86 11.42857,-11.42858 2.08118,-3.32989 0.67897,-8.1613 2.85714,-11.42857 3.73555,-5.60332 9.97449,-9.11224 14.28572,-14.28571 0.6097,-0.73164 0,-1.90476 0,-2.85714 0,-7.61905 -1.71322,-15.43321 0,-22.85715 1.24871,-5.41107 6.9757,-8.96663 8.57143,-14.28571 1.36832,-4.56108 0,-9.52381 0,-14.28572 0,-4.7619 0,-9.52381 0,-14.28571 0,-16.19048 0,-32.38095 0,-48.57143 0,-14.28571 0,-28.57143 0,-42.85714 0,-7.61905 2.09311,-15.53125 0,-22.85714 -1.88671,-6.60348 -9.54187,-10.53939 -11.42857,-17.14286 -2.09312,-7.3259 2.40935,-15.62908 0,-22.85714 -6.09531,-18.28591 -14.0483,-7.28612 -25.71429,-14.28572 -5.77466,-3.46479 -9.28011,-9.78067 -14.28571,-14.28571 -4.53277,-4.07949 -9.75295,-7.34908 -14.28572,-11.42857 -5.13447,-4.62103 -22.27036,-21.68358 -25.71428,-28.57143 -2.17177,-4.34353 -0.49876,-10.04063 -2.85715,-14.28572 -2.61639,-4.7095 -9.24051,-6.50543 -11.42857,-11.42857 -2.89313,-6.50955 3.54067,-19.31647 -2.85714,-25.71428 -2.77665,-2.77665 -8.65193,-0.0805 -11.42857,-2.85715 -20.60061,-20.60061 25.46757,-3.91917 -17.14286,-22.85714 -3.48119,-1.54719 -8.38095,2.28571 -11.42857,0 -2.28572,-1.71429 2.0203,-6.55112 0,-8.57143 -2.77665,-2.77664 -10.94152,1.0393 -11.42857,-2.85714 -0.89964,-7.19711 14.23516,-15.46902 8.57143,-20 -6.35405,-5.08324 -15.2381,5.71428 -22.85715,8.57143"
       id="path3010"
       inkscape:connector-curvature="0" />
  </g>
</svg>
