<?xml version="1.0" encoding="UTF-8" standalone="no"?>
<!-- Created with Inkscape (http://www.inkscape.org/) -->

<svg
   xmlns:dc="http://purl.org/dc/elements/1.1/"
   xmlns:cc="http://creativecommons.org/ns#"
   xmlns:rdf="http://www.w3.org/1999/02/22-rdf-syntax-ns#"
   xmlns:svg="http://www.w3.org/2000/svg"
   xmlns="http://www.w3.org/2000/svg"
   xmlns:sodipodi="http://sodipodi.sourceforge.net/DTD/sodipodi-0.dtd"
   xmlns:inkscape="http://www.inkscape.org/namespaces/inkscape"
   width="210mm"
   height="297mm"
   id="svg2"
   version="1.1"
   inkscape:version="0.48.4 r9939"
   inkscape:export-filename="/home/kumadasu/dl/digits/kumadas-handwrite/1.png"
   inkscape:export-xdpi="150"
   inkscape:export-ydpi="150"
   sodipodi:docname="新規ドキュメント 1">
  <defs
     id="defs4" />
  <sodipodi:namedview
     id="base"
     pagecolor="#ffffff"
     bordercolor="#666666"
     borderopacity="1.0"
     inkscape:pageopacity="0.0"
     inkscape:pageshadow="2"
     inkscape:zoom="0.35"
     inkscape:cx="-195"
     inkscape:cy="540"
     inkscape:document-units="px"
     inkscape:current-layer="layer1"
     showgrid="false"
     inkscape:window-width="1920"
     inkscape:window-height="1056"
     inkscape:window-x="0"
     inkscape:window-y="24"
     inkscape:window-maximized="1" />
  <metadata
     id="metadata7">
    <rdf:RDF>
      <cc:Work
         rdf:about="">
        <dc:format>image/svg+xml</dc:format>
        <dc:type
           rdf:resource="http://purl.org/dc/dcmitype/StillImage" />
        <dc:title></dc:title>
      </cc:Work>
    </rdf:RDF>
  </metadata>
  <g
     inkscape:label="レイヤー 1"
     inkscape:groupmode="layer"
     id="layer1">
    <path
       style="fill:none;stroke:#000000;stroke-width:30;stroke-linecap:butt;stroke-linejoin:miter;stroke-opacity:1;stroke-miterlimit:4;stroke-dasharray:none"
       d="m 328.57143,378.07647 c 0,51.42857 0,102.85714 0,154.28571 0,10.47619 0,20.95238 0,31.42857 0,3.80953 -1.33761,7.86161 0,11.42858 1.67201,4.45871 6.89941,6.96986 8.57143,11.42857 1.33761,3.56697 0,7.61904 0,11.42857 0,9.52381 0,19.04762 0,28.57143 0,3.80952 -0.92395,7.73279 0,11.42857 0.23098,0.92394 2.67036,-0.93389 2.85714,0 0.93389,4.66943 0,9.52381 0,14.28571 0,12.38095 0,24.76191 0,37.14286 0,4.7619 -1.15493,9.66599 0,14.28571 0.23099,0.92395 2.00531,-0.42591 2.85714,0 1.20468,0.60234 2.35693,1.60661 2.85715,2.85715 10.55194,26.37986 -3.71156,-3.41765 2.85714,22.85714 0.23098,0.92394 2.67036,-0.93389 2.85714,0 0.72948,3.64741 0,22.98685 0,28.57143 0,24.7619 0,49.52381 0,74.28571"
       id="path2985"
       inkscape:connector-curvature="0" />
  </g>
</svg>
