<?xml version="1.0" encoding="UTF-8" standalone="no"?>
<!-- Created with Inkscape (http://www.inkscape.org/) -->

<svg
   xmlns:dc="http://purl.org/dc/elements/1.1/"
   xmlns:cc="http://creativecommons.org/ns#"
   xmlns:rdf="http://www.w3.org/1999/02/22-rdf-syntax-ns#"
   xmlns:svg="http://www.w3.org/2000/svg"
   xmlns="http://www.w3.org/2000/svg"
   xmlns:sodipodi="http://sodipodi.sourceforge.net/DTD/sodipodi-0.dtd"
   xmlns:inkscape="http://www.inkscape.org/namespaces/inkscape"
   width="210mm"
   height="297mm"
   id="svg2"
   version="1.1"
   inkscape:version="0.48.4 r9939"
   inkscape:export-filename="/home/kumadasu/dl/digits/kumadas-handwrite/2.png"
   inkscape:export-xdpi="50"
   inkscape:export-ydpi="50"
   sodipodi:docname="2.svg">
  <defs
     id="defs4" />
  <sodipodi:namedview
     id="base"
     pagecolor="#ffffff"
     bordercolor="#666666"
     borderopacity="1.0"
     inkscape:pageopacity="0.0"
     inkscape:pageshadow="2"
     inkscape:zoom="0.35"
     inkscape:cx="-195"
     inkscape:cy="540"
     inkscape:document-units="px"
     inkscape:current-layer="layer1"
     showgrid="false"
     inkscape:window-width="1920"
     inkscape:window-height="1056"
     inkscape:window-x="0"
     inkscape:window-y="24"
     inkscape:window-maximized="1" />
  <metadata
     id="metadata7">
    <rdf:RDF>
      <cc:Work
         rdf:about="">
        <dc:format>image/svg+xml</dc:format>
        <dc:type
           rdf:resource="http://purl.org/dc/dcmitype/StillImage" />
        <dc:title></dc:title>
      </cc:Work>
    </rdf:RDF>
  </metadata>
  <g
     inkscape:label="レイヤー 1"
     inkscape:groupmode="layer"
     id="layer1">
    <path
       style="fill:none;stroke:#000000;stroke-width:30;stroke-linecap:butt;stroke-linejoin:miter;stroke-opacity:1;stroke-miterlimit:4;stroke-dasharray:none"
       d="m 245.71429,412.36218 c 5.38748,-5.38748 -5.38748,-17.46966 0,-22.85714 2.69374,-2.69374 8.1981,2.01904 11.42857,0 5.17127,-3.23205 7.11648,-9.97363 11.42857,-14.28571 0.67343,-0.67344 1.9621,0.32547 2.85714,0 50.11583,-18.22394 9.26755,-8.82524 45.71429,-11.42858 7.65882,-0.54706 15.19831,-2.31008 22.85714,-2.85714 9.49961,-0.67854 19.04762,0 28.57143,0 23.80952,0 47.61905,0 71.42857,0 3.80952,0 7.61905,0 11.42857,0 5.71429,0 11.46352,-0.63104 17.14286,0 2.99327,0.33259 7.02192,0.27464 8.57143,2.85714 3.2967,5.49451 -0.82418,9.34066 0,14.28572 0.79835,4.79013 2.37393,9.4536 2.85714,14.28571 0.47383,4.73827 0,9.52381 0,14.28572 0,6.66666 0,13.33333 0,20 0,15.23809 0,30.47619 0,45.71428 0,7.61905 0,15.2381 0,22.85715 0,4.7619 0.78285,9.5886 0,14.28571 -7.60036,45.60214 -2.4929,-4.13199 -14.28571,37.14286 -2.10941,7.38291 0.1675,15.79963 -2.85715,22.85714 -2.9301,6.83691 -9.82271,11.19219 -14.28571,17.14286 -4.12063,5.49417 -8.35724,11.00018 -11.42857,17.14285 -1.75611,3.51221 -0.57476,8.23323 -2.85715,11.42858 -2.7678,3.87492 -9.066,4.43693 -11.42857,8.57142 -1.89005,3.3076 1.85007,8.09845 0,11.42858 -3.27049,5.88688 -10.82092,8.51105 -14.28571,14.28571 -25.06715,41.77858 29.54494,-18.11637 -17.14286,28.57143 -3.80952,3.80952 -7.61905,7.61905 -11.42857,11.42857 0,4.7619 3.0485,10.62752 0,14.28571 -3.10887,3.73065 -10.2451,0.16341 -14.28571,2.85715 -30.58418,20.38945 5.94191,7.31554 -14.28572,34.28571 -2.91372,3.88497 -10.2451,0.1634 -14.28571,2.85714 -17.82606,-1.06775 -7.26981,17.24442 -14.28572,22.85715 -3.06629,2.45303 -8.65192,0.0805 -11.42857,2.85714 -2.77664,2.77664 -0.62199,8.20001 -2.85714,11.42857 -1.22232,1.76557 -29.26453,33.69734 -37.14286,40 -0.74368,0.59495 -1.91772,-0.15657 -2.85714,0 -4.79014,0.79836 -9.94219,0.68538 -14.28572,2.85714 -5.4544,2.72721 -9.52381,7.61905 -14.28571,11.42858 -13.06704,10.45363 -17.12663,12.83888 -28.57143,25.71428 -3.16364,3.55909 -5.59669,7.71015 -8.57143,11.42857 -0.84138,1.05173 -4.1638,2.53048 -2.85714,2.85715 35.58134,8.89533 5.27618,0.85119 17.14286,-2.85715 14.11192,-4.40997 28.2579,-9.09269 42.85714,-11.42857 9.4042,-1.50467 19.04762,0 28.57143,0 50.89774,0 2.59101,4.25262 45.71428,-11.42857 3.58017,-1.30188 7.61905,0 11.42858,0 10.47619,0 20.95238,0 31.42857,0 13.33333,0 26.66666,0 40,0 36.19047,0 72.38095,0 108.57143,0 9.52381,0 19.04761,0 28.57142,0 3.80953,0 8.38096,-2.28571 11.42858,0 2.28571,1.71429 -2.44998,7.10144 0,8.57143 4.0833,2.44998 9.52381,0 14.28571,0 3.80952,0 7.61905,0 11.42857,0 0.95238,0 2.18371,-0.67344 2.85714,0 0.67344,0.67343 0,1.90476 0,2.85714 0,2.85714 0,5.71429 0,8.57143"
       id="path3803"
       inkscape:connector-curvature="0" />
  </g>
</svg>
