<?xml version="1.0" encoding="UTF-8" standalone="no"?>
<!-- Created with Inkscape (http://www.inkscape.org/) -->

<svg
   xmlns:dc="http://purl.org/dc/elements/1.1/"
   xmlns:cc="http://creativecommons.org/ns#"
   xmlns:rdf="http://www.w3.org/1999/02/22-rdf-syntax-ns#"
   xmlns:svg="http://www.w3.org/2000/svg"
   xmlns="http://www.w3.org/2000/svg"
   xmlns:sodipodi="http://sodipodi.sourceforge.net/DTD/sodipodi-0.dtd"
   xmlns:inkscape="http://www.inkscape.org/namespaces/inkscape"
   width="210mm"
   height="297mm"
   id="svg2"
   version="1.1"
   inkscape:version="0.48.4 r9939"
   inkscape:export-filename="/home/kumadasu/dl/digits/kumadas-handwrite/2.png"
   inkscape:export-xdpi="50"
   inkscape:export-ydpi="50"
   sodipodi:docname="3.svg">
  <defs
     id="defs4" />
  <sodipodi:namedview
     id="base"
     pagecolor="#ffffff"
     bordercolor="#666666"
     borderopacity="1.0"
     inkscape:pageopacity="0.0"
     inkscape:pageshadow="2"
     inkscape:zoom="0.35"
     inkscape:cx="-195"
     inkscape:cy="540"
     inkscape:document-units="px"
     inkscape:current-layer="layer1"
     showgrid="false"
     inkscape:window-width="1920"
     inkscape:window-height="1056"
     inkscape:window-x="0"
     inkscape:window-y="24"
     inkscape:window-maximized="1" />
  <metadata
     id="metadata7">
    <rdf:RDF>
      <cc:Work
         rdf:about="">
        <dc:format>image/svg+xml</dc:format>
        <dc:type
           rdf:resource="http://purl.org/dc/dcmitype/StillImage" />
        <dc:title></dc:title>
      </cc:Work>
    </rdf:RDF>
  </metadata>
  <g
     inkscape:label="レイヤー 1"
     inkscape:groupmode="layer"
     id="layer1">
    <path
       style="fill:none;stroke:#000000;stroke-width:30;stroke-linecap:butt;stroke-linejoin:miter;stroke-opacity:1;stroke-miterlimit:4;stroke-dasharray:none"
       d="m 194.28571,238.07647 c -3.80952,3.80952 -8.06303,7.22165 -11.42857,11.42857 -0.59494,0.74368 0,1.90476 0,2.85714 0,3.80953 -3.48118,9.88138 0,11.42857 7.83267,3.48119 17.14286,0 25.71429,0 12.38095,0 24.7619,0 37.14286,0 5.71428,0 11.42857,0 17.14285,0 3.80953,0 7.81454,1.20468 11.42857,0 5.26832,-1.7561 8.96663,-6.9757 14.28572,-8.57142 4.56108,-1.36833 9.55293,0.52586 14.28571,0 3.90275,-0.43364 7.57806,-2.08704 11.42857,-2.85715 0.93389,-0.18677 1.90477,0 2.85715,0 3.80952,0 7.61904,0 11.42857,0 3.80952,0 7.61905,0 11.42857,0 19.04762,0 38.09524,0 57.14286,0 8.57143,0 17.14285,0 25.71428,0 4.38717,0 11.81521,-0.23098 14.28572,2.85715 2.37979,2.97473 -2.69374,8.73483 0,11.42857 3.43386,3.43386 11.17684,-0.8735 14.28571,2.85714 4.83749,5.80499 -2.90249,16.32653 0,22.85714 2.78925,6.2758 9.08158,10.68862 11.42857,17.14286 5.68316,15.62868 -5.84138,11.79665 2.85715,25.71429 2.85535,4.56857 9.2405,6.50543 11.42857,11.42857 0.46769,1.05232 0,21.47318 0,25.71428 0,12.38095 0,24.76191 0,37.14286 0,4.7619 0,9.52381 0,14.28571 0,3.80953 1.20467,7.81454 0,11.42858 -1.75611,5.26831 -6.97571,8.96663 -8.57143,14.28571 -1.36832,4.56108 2.64143,10.32357 0,14.28571 -24.52734,36.79101 -7.93721,-1.46781 -28.57143,11.42858 -5.17127,3.23204 -7.11648,9.97362 -11.42857,14.28571 -5.2597,5.2597 -10.88589,10.26338 -17.14286,14.28571 -7.16545,4.60637 -15.34095,7.41994 -22.85714,11.42858 -6.77501,3.61333 -13.0099,8.25125 -20,11.42857 -3.5748,1.6249 -7.84025,1.26233 -11.42857,2.85714 -5.07466,2.2554 -9.01741,6.81532 -14.28572,8.57143 -18.21328,6.07109 -4.78689,-7.18189 -22.85714,2.85714 -5.3308,2.96156 -8.83131,8.70137 -14.28571,11.42857 -4.34353,2.17177 -10.55508,-0.25172 -14.28572,2.85715 -27.68482,23.07068 24.25965,3.71949 -14.28571,11.42857 -1.32072,0.26414 -1.80542,2.01576 -2.85715,2.85714 -3.71842,2.97474 -7.34527,6.12145 -11.42857,8.57143 -0.81666,0.48999 -2.85714,0.95238 -2.85714,0 0,-0.95238 2.00531,0.42592 2.85714,0 4.96701,-2.48351 8.87464,-7.32272 14.28572,-8.57143 7.42393,-1.71322 15.23809,0 22.85714,0 4.7619,0 9.52381,0 14.28571,0 20,0 40,0 60,0 4.76191,0 9.52381,0 14.28572,0 29.23402,0 -1.57125,-2.36257 34.28571,11.42857 5.40697,2.07961 11.86901,0.45994 17.14286,2.85714 5.55161,2.52346 8.7131,8.95186 14.28571,11.42858 3.48119,1.54719 8.45384,-2.3798 11.42858,0 3.06629,2.45303 0.0805,8.65192 2.85714,11.42857 2.77664,2.77664 7.99596,0.95013 11.42857,2.85714 10.6616,5.92311 17.66261,17.40273 28.57143,22.85714 4.34352,2.17177 10.85185,-0.57671 14.28571,2.85715 2.69374,2.69374 -1.95998,8.16193 0,11.42857 1.54951,2.5825 6.69004,0.5054 8.57143,2.85714 3.78109,4.72636 2.85714,17.58934 2.85714,22.85714 0,4.76191 0,9.52381 0,14.28572 0,4.7619 -0.47382,9.54744 0,14.28571 0.48322,4.83211 2.25481,9.46701 2.85715,14.28572 0.35438,2.83508 0,5.71428 0,8.57142 0,9.52381 0,19.04762 0,28.57143 0,3.80953 0,7.61905 0,11.42857 0,3.80953 0.74711,7.69303 0,11.42858 -0.26415,1.32071 -1.9949,1.82244 -2.85715,2.85714 -3.90398,4.68478 -7.11648,9.97362 -11.42857,14.28571 -4.31209,4.31209 -10.62678,6.55 -14.28571,11.42857 -2.35606,3.14142 -1.90476,7.61905 -2.85714,11.42858 -4.76191,0.95238 -10.85186,-0.57672 -14.28572,2.85714 -2.69374,2.69374 2.69374,8.73483 0,11.42857 -2.69374,2.69374 -7.94738,-1.54719 -11.42857,0 -26.61263,21.29011 -2.34524,6.75476 -25.71429,11.42857 -1.32071,0.26414 -1.82244,1.9949 -2.85714,2.85714 -4.68478,3.90399 -8.8313,8.70137 -14.28571,11.42858 -2.99116,1.49557 -22.69768,-1.50831 -25.71429,0 -6.02338,3.01169 -8.26233,11.27402 -14.28571,14.28571 -8.57143,4.28571 -17.14286,-3.42857 -25.71429,0 -6.37651,2.55061 -10.76634,8.87797 -17.14286,11.42857 -3.53705,1.41482 -7.61904,0 -11.42857,0 -4.7619,0 -9.61628,-0.93389 -14.28571,0 -0.93389,0.18678 0,1.90476 0,2.85714 -4.76191,0 -9.52381,0 -14.28572,0 -3.80952,0 -7.61904,0 -11.42857,0 -0.95238,0 -2.0053,-0.42591 -2.85714,0 -21.06282,10.53142 -6.32426,8.57143 -25.71429,8.57143"
       id="path3890"
       inkscape:connector-curvature="0" />
  </g>
</svg>
