<?xml version="1.0" encoding="UTF-8" standalone="no"?>
<!-- Created with Inkscape (http://www.inkscape.org/) -->

<svg
   xmlns:dc="http://purl.org/dc/elements/1.1/"
   xmlns:cc="http://creativecommons.org/ns#"
   xmlns:rdf="http://www.w3.org/1999/02/22-rdf-syntax-ns#"
   xmlns:svg="http://www.w3.org/2000/svg"
   xmlns="http://www.w3.org/2000/svg"
   xmlns:sodipodi="http://sodipodi.sourceforge.net/DTD/sodipodi-0.dtd"
   xmlns:inkscape="http://www.inkscape.org/namespaces/inkscape"
   width="210mm"
   height="297mm"
   id="svg2"
   version="1.1"
   inkscape:version="0.48.4 r9939"
   inkscape:export-filename="/home/kumadasu/dl/digits/kumadas-handwrite/5.png"
   inkscape:export-xdpi="50"
   inkscape:export-ydpi="50"
   sodipodi:docname="5.svg">
  <defs
     id="defs4" />
  <sodipodi:namedview
     id="base"
     pagecolor="#ffffff"
     bordercolor="#666666"
     borderopacity="1.0"
     inkscape:pageopacity="0.0"
     inkscape:pageshadow="2"
     inkscape:zoom="0.35"
     inkscape:cx="-765"
     inkscape:cy="540"
     inkscape:document-units="px"
     inkscape:current-layer="layer1"
     showgrid="false"
     inkscape:window-width="1920"
     inkscape:window-height="1056"
     inkscape:window-x="0"
     inkscape:window-y="24"
     inkscape:window-maximized="1" />
  <metadata
     id="metadata7">
    <rdf:RDF>
      <cc:Work
         rdf:about="">
        <dc:format>image/svg+xml</dc:format>
        <dc:type
           rdf:resource="http://purl.org/dc/dcmitype/StillImage" />
        <dc:title></dc:title>
      </cc:Work>
    </rdf:RDF>
  </metadata>
  <g
     inkscape:label="レイヤー 1"
     inkscape:groupmode="layer"
     id="layer1">
    <path
       style="fill:none;stroke:#000000;stroke-width:30;stroke-linecap:butt;stroke-linejoin:miter;stroke-opacity:1;stroke-miterlimit:4;stroke-dasharray:none"
       d="m 211.42857,366.6479 c 0,100.95238 0,201.90476 0,302.85714 0,0.95238 -0.79243,-2.32886 0,-2.85714 8.15856,-5.43904 17.46623,-8.98339 25.71429,-14.28572 39.12418,-31.29934 -11.02794,5.0127 31.42857,-14.28571 11.10322,-5.04692 17.24733,-18.32751 28.57143,-22.85714 4.42131,-1.76853 9.54026,0.39545 14.28571,0 6.71109,-0.55926 13.56345,-0.87667 20,-2.85715 6.10625,-1.87884 10.97921,-6.89043 17.14286,-8.57143 4.59411,-1.25294 9.52381,0 14.28571,0 9.52381,0 19.04762,0 28.57143,0 13.33333,0 26.66667,0 40,0 3.80953,0 7.61905,0 11.42857,0 4.76191,0 10.02654,-2.12958 14.28572,0 6.02338,3.0117 9.28011,9.78068 14.28571,14.28572 4.53277,4.07949 11.05367,6.2573 14.28572,11.42857 4.03808,6.46094 -3.40735,16.04246 0,22.85714 3.32652,6.65305 10.95919,10.48981 14.28571,17.14286 1.70367,3.40734 0,7.61905 0,11.42857 0,4.76191 -1.93399,9.93423 0,14.28572 2.18806,4.92314 9.01922,6.60986 11.42857,11.42857 1.70367,3.40734 0,7.61904 0,11.42857 0,4.7619 -0.52586,9.55293 0,14.28571 0.43364,3.90275 2.08704,7.57806 2.85714,11.42857 0.18678,0.93389 0,1.90477 0,2.85715 0,3.80952 0,7.61904 0,11.42857 0,8.57143 0,17.14286 0,25.71428 0,8.51708 0.62629,20.9079 -2.85714,28.57143 -2.52346,5.55161 -8.19652,9.11444 -11.42857,14.28572 -1.59619,2.55391 -0.60618,6.57057 -2.85714,8.57143 -6.71528,5.96913 -15.38139,9.30187 -22.85715,14.28571 -14.33834,9.55889 29.44551,-9.27737 -17.14285,11.42857 -3.58833,1.59481 -7.99596,0.95014 -11.42857,2.85714 -1.51882,0.84379 -27.62367,22.47804 -28.57143,22.85715 -4.42132,1.76852 -9.52381,0 -14.28572,0 -3.80952,0 -7.61904,0 -11.42857,0 -6.66667,0 -13.36642,-0.66336 -20,0 -3.90728,0.39072 -7.52582,2.4235 -11.42857,2.85714 -4.73278,0.52586 -9.93423,-1.93399 -14.28571,0 -4.92315,2.18806 -6.50543,9.24051 -11.42858,11.42857 -4.35148,1.93399 -9.52381,0 -14.28571,0 -3.80952,0 -7.61905,0 -11.42857,0 -13.33333,0 -26.66667,0 -40,0"
       id="path4049"
       inkscape:connector-curvature="0" />
    <path
       style="fill:none;stroke:#000000;stroke-width:30;stroke-linecap:butt;stroke-linejoin:miter;stroke-opacity:1;stroke-miterlimit:4;stroke-dasharray:none"
       d="m 214.28571,389.50504 c 28.57143,0 57.14286,0 85.71429,0 8.57143,0 17.15605,0.47546 25.71429,0 14.69513,1.44003 28.47692,-4.7556 42.85714,-5.71429 8.55244,-0.57016 17.43227,2.20854 25.71428,0 6.63583,-1.76955 10.53939,-9.54186 17.14286,-11.42857 7.3259,-2.09311 15.2381,0 22.85714,0 5.71429,0 11.42858,0 17.14286,0 30.47619,0 60.95238,0 91.42857,0"
       id="path4051"
       inkscape:connector-curvature="0" />
  </g>
</svg>
