<?xml version="1.0" encoding="UTF-8" standalone="no"?>
<!-- Created with Inkscape (http://www.inkscape.org/) -->

<svg
   xmlns:dc="http://purl.org/dc/elements/1.1/"
   xmlns:cc="http://creativecommons.org/ns#"
   xmlns:rdf="http://www.w3.org/1999/02/22-rdf-syntax-ns#"
   xmlns:svg="http://www.w3.org/2000/svg"
   xmlns="http://www.w3.org/2000/svg"
   xmlns:sodipodi="http://sodipodi.sourceforge.net/DTD/sodipodi-0.dtd"
   xmlns:inkscape="http://www.inkscape.org/namespaces/inkscape"
   width="210mm"
   height="297mm"
   id="svg2"
   version="1.1"
   inkscape:version="0.48.4 r9939"
   inkscape:export-filename="/home/kumadasu/dl/digits/kumadas-handwrite/6.png"
   inkscape:export-xdpi="50"
   inkscape:export-ydpi="50"
   sodipodi:docname="6.svg">
  <defs
     id="defs4" />
  <sodipodi:namedview
     id="base"
     pagecolor="#ffffff"
     bordercolor="#666666"
     borderopacity="1.0"
     inkscape:pageopacity="0.0"
     inkscape:pageshadow="2"
     inkscape:zoom="0.35"
     inkscape:cx="-796.77277"
     inkscape:cy="540"
     inkscape:document-units="px"
     inkscape:current-layer="layer1"
     showgrid="false"
     inkscape:window-width="1920"
     inkscape:window-height="1056"
     inkscape:window-x="0"
     inkscape:window-y="24"
     inkscape:window-maximized="1" />
  <metadata
     id="metadata7">
    <rdf:RDF>
      <cc:Work
         rdf:about="">
        <dc:format>image/svg+xml</dc:format>
        <dc:type
           rdf:resource="http://purl.org/dc/dcmitype/StillImage" />
        <dc:title></dc:title>
      </cc:Work>
    </rdf:RDF>
  </metadata>
  <g
     inkscape:label="レイヤー 1"
     inkscape:groupmode="layer"
     id="layer1">
    <path
       style="fill:none;stroke:#000000;stroke-width:30;stroke-linecap:butt;stroke-linejoin:miter;stroke-opacity:1;stroke-miterlimit:4;stroke-dasharray:none"
       d="m 388.57143,312.36218 c -3.33012,7.70851 4.16265,18.22151 0,25.71429 -2.96156,5.3308 -10.62679,6.55 -14.28572,11.42857 -2.35606,3.14141 -0.67896,8.1613 -2.85714,11.42857 -3.73554,5.60332 -9.52381,9.52381 -14.28571,14.28572 -13.86605,13.86604 -28.18446,27.10308 -40,42.85714 -4.12063,5.49417 -9.11871,10.67524 -11.42857,17.14286 -2.58251,7.23101 -0.42904,15.57282 -2.85715,22.85714 -4.36508,13.09524 -28.28571,51.33333 -31.42857,62.85714 -2.50588,9.18823 2.84072,19.48114 0,28.57143 -2.21867,7.09974 -11.20771,10.37125 -14.28571,17.14286 -1.97049,4.33508 0.33927,9.53591 0,14.28571 -0.61445,8.60226 -2.28347,17.10921 -2.85715,25.71429 -0.3801,5.70163 0,11.42857 0,17.14285 0,8.57143 0,17.14286 0,25.71429 0,17.14286 0,34.28571 0,51.42857 0,7.80256 -0.7471,18.50578 2.85715,25.71429 2.7272,5.4544 8.70136,8.8313 11.42857,14.28571 2.17176,4.34353 0.35864,10.12155 2.85714,14.28572 3.4648,5.77465 10.45246,8.74878 14.28572,14.28571 4.84873,7.00372 6.57983,15.85342 11.42857,22.85714 3.83326,5.53693 9.52381,9.52381 14.28571,14.28572 6.92608,6.92607 20.76816,21.45796 28.57143,25.71428 4.26324,2.32541 10.04062,0.49876 14.28571,2.85715 15.04673,8.35929 8.00714,16.41817 25.71429,22.85714 5.37025,1.95282 11.42857,0 17.14286,0 8.57143,0 17.14285,0 25.71428,0 18.09524,0 36.19048,0 54.28572,0 3.80952,0 8.45383,2.37979 11.42857,0 3.06629,-2.45303 0.0805,-8.65193 2.85714,-11.42857 2.77665,-2.77665 7.61905,-1.90477 11.42857,-2.85715 4.76191,-3.80952 10.20623,-6.8958 14.28572,-11.42857 22.74113,-25.26792 3.02745,-7.87139 14.28571,-37.14285 2.46537,-6.40996 9.11871,-10.67525 11.42857,-17.14286 2.58251,-7.23102 -0.36053,-15.88552 2.85715,-22.85714 15.57344,-33.74246 12.99712,4.29529 22.85714,-28.57143 0.45918,-1.53062 -0.36735,-22.77551 0,-25.71429 0.48705,-3.89644 2.37009,-7.53213 2.85714,-11.42857 0.59064,-4.72513 0,-9.52381 0,-14.28571 0,-12.38096 0,-24.76191 0,-37.14286 0,-5.71429 2.55551,-12.03185 0,-17.14286 -2.7272,-5.45441 -9.97362,-7.11648 -14.28571,-11.42857 -4.31209,-4.31209 -7.11649,-9.97363 -11.42857,-14.28571 -9.62351,-9.62351 -20.5017,-14.91033 -31.42858,-22.85715 -4.93184,-3.58679 -8.8313,-8.70136 -14.28571,-11.42857 -4.34353,-2.17176 -9.4721,-2.21533 -14.28571,-2.85714 -9.48735,-1.26498 -19.22804,-0.78084 -28.57143,-2.85714 -7.94338,-1.7652 -14.92838,-6.74172 -22.85715,-8.57143 -4.63995,-1.07076 -9.52381,0 -14.28571,0 -10.47619,0 -20.95238,0 -31.42857,0 -12.38095,0 -24.76191,0 -37.14286,0 -3.80952,0 -8.45383,-2.37979 -11.42857,0 -3.06629,2.45303 0.20915,8.97554 -2.85714,11.42857 -2.97474,2.37979 -8.45384,-2.37979 -11.42857,0 -3.06629,2.45303 0.15948,8.91471 -2.85715,11.42857 -3.73064,3.10887 -10.85185,-0.57672 -14.28571,2.85714 -2.69374,2.69374 2.37979,8.45384 0,11.42857 -2.45303,3.06629 -8.97554,-0.20914 -11.42857,2.85715 -2.37979,2.97474 0,7.61904 0,11.42857 0,0.95238 0.59494,2.11346 0,2.85714 -3.36554,4.20692 -9.24051,6.50543 -11.42857,11.42857 -1.22449,2.7551 0.97959,21.79592 0,25.71429 -0.23099,0.92394 -2.32886,-0.79243 -2.85715,0 -1.67058,2.50588 -0.72755,6.44184 -2.85714,8.57143 -2.12959,2.12959 -7.22456,0.1634 -8.57143,2.85714 -2.12959,4.25918 0,9.52381 0,14.28571 0,3.80953 0,7.61905 0,11.42858 0,4.7619 0.52587,9.55293 0,14.28571 -0.43364,3.90275 -0.0805,8.65193 -2.85714,11.42857 -2.77665,2.77664 -8.65193,0.0805 -11.42857,2.85714 -2.02031,2.02031 0,5.71429 0,8.57143 0,0.95238 0.95238,2.85715 0,2.85715 -0.95238,0 0,-1.90477 0,-2.85715"
       id="path4642"
       inkscape:connector-curvature="0"
       inkscape:export-filename="/home/kumadasu/dl/digits/kumadas-handwrite/svg/6.png"
       inkscape:export-xdpi="50"
       inkscape:export-ydpi="50" />
  </g>
</svg>
