<?xml version="1.0" encoding="UTF-8" standalone="no"?>
<!-- Created with Inkscape (http://www.inkscape.org/) -->

<svg
   xmlns:dc="http://purl.org/dc/elements/1.1/"
   xmlns:cc="http://creativecommons.org/ns#"
   xmlns:rdf="http://www.w3.org/1999/02/22-rdf-syntax-ns#"
   xmlns:svg="http://www.w3.org/2000/svg"
   xmlns="http://www.w3.org/2000/svg"
   xmlns:sodipodi="http://sodipodi.sourceforge.net/DTD/sodipodi-0.dtd"
   xmlns:inkscape="http://www.inkscape.org/namespaces/inkscape"
   width="210mm"
   height="297mm"
   id="svg2"
   version="1.1"
   inkscape:version="0.48.4 r9939"
   inkscape:export-filename="/home/kumadasu/dl/digits/kumadas-handwrite/7.png"
   inkscape:export-xdpi="50"
   inkscape:export-ydpi="50"
   sodipodi:docname="6.svg">
  <defs
     id="defs4" />
  <sodipodi:namedview
     id="base"
     pagecolor="#ffffff"
     bordercolor="#666666"
     borderopacity="1.0"
     inkscape:pageopacity="0.0"
     inkscape:pageshadow="2"
     inkscape:zoom="0.35"
     inkscape:cx="-765"
     inkscape:cy="540"
     inkscape:document-units="px"
     inkscape:current-layer="layer1"
     showgrid="false"
     inkscape:window-width="1920"
     inkscape:window-height="1056"
     inkscape:window-x="0"
     inkscape:window-y="24"
     inkscape:window-maximized="1" />
  <metadata
     id="metadata7">
    <rdf:RDF>
      <cc:Work
         rdf:about="">
        <dc:format>image/svg+xml</dc:format>
        <dc:type
           rdf:resource="http://purl.org/dc/dcmitype/StillImage" />
        <dc:title></dc:title>
      </cc:Work>
    </rdf:RDF>
  </metadata>
  <g
     inkscape:label="レイヤー 1"
     inkscape:groupmode="layer"
     id="layer1">
    <path
       style="fill:none;stroke:#000000;stroke-width:30;stroke-linecap:butt;stroke-linejoin:miter;stroke-opacity:1;stroke-miterlimit:4;stroke-dasharray:none"
       d="m 148.57143,289.50504 c 0,27.61905 0,55.23809 0,82.85714 0,9.499 -0.74711,16.34323 2.85714,25.71429 3.05791,7.95057 8.26494,14.94805 11.42857,22.85714 0.70741,1.76853 0,3.80952 0,5.71429 0,3.80952 0,7.61904 0,11.42857 0,3.80952 -0.92394,7.73279 0,11.42857 0.23099,0.92394 2.24745,-0.73164 2.85715,0 4.3966,5.27593 8.87796,10.76634 11.42857,17.14286 1.41482,3.53705 0,7.61904 0,11.42857 0,5.682 -0.74711,21.20897 2.85714,25.71428 1.78484,2.23106 6.55112,-2.0203 8.57143,0 4.04329,4.04329 2.85714,21.00084 2.85714,25.71429"
       id="path4580"
       inkscape:connector-curvature="0" />
    <path
       style="fill:none;stroke:#000000;stroke-width:30;stroke-linecap:butt;stroke-linejoin:miter;stroke-opacity:1;stroke-miterlimit:4;stroke-dasharray:none"
       d="m 154.28571,312.36218 c 18.8768,-0.94726 38.59306,2.4428 57.14286,-2.85714 6.14295,-1.75513 10.87816,-7.31849 17.14286,-8.57143 8.40498,-1.68099 17.14286,0 25.71428,0 18.09524,0 36.19048,0 54.28572,0 23.80952,0 47.61905,0 71.42857,0 9.52381,0 19.04762,0 28.57143,0 5.71428,0 11.83727,-2.12223 17.14286,0 9.56477,3.82591 16.50027,12.53585 25.71428,17.14286 16.48735,8.24367 20.37869,-3.6833 40,2.85714 7.05662,2.35221 10.27671,11.42482 17.14286,14.28572 5.27472,2.1978 11.77261,-1.95282 17.14286,0 5.73106,2.08402 8.71309,8.95185 14.28571,11.42857 11.85256,5.2678 11.34337,-6.35388 22.85714,2.85714 2.35174,1.88139 0.50541,6.69004 2.85715,8.57143 3.06629,2.45303 7.52582,2.4235 11.42857,2.85714 4.73278,0.52587 9.52381,0 14.28571,0 4.76191,0 9.52381,0 14.28572,0 3.80952,0 7.69302,-0.74711 11.42857,0 1.32071,0.26414 2.53048,1.55049 2.85714,2.85714 0.69296,2.77184 0,5.71429 0,8.57143 0,2.85715 0.46971,5.75316 0,8.57143 -0.79836,4.79014 -2.37393,9.45361 -2.85714,14.28572 -0.47383,4.73827 0,9.5238 0,14.28571 0,3.80952 1.4652,7.91209 0,11.42857 -3.45567,8.29361 -10.52059,14.69936 -14.28572,22.85714 -2.03503,4.40924 -1.90476,9.52381 -2.85714,14.28572 -2.85714,6.66666 -5.17778,13.58978 -8.57143,20 -6.59111,12.44988 -23.63001,36.60431 -28.57143,51.42857 -1.20467,3.61403 1.13629,7.79246 0,11.42857 -3.69293,11.81737 -9.20501,22.99526 -14.28571,34.28572 -3.49563,7.76807 -9.36257,14.59312 -11.42857,22.85714 -2.78145,11.12577 0.59628,23.34985 -2.85715,34.28571 -2.46707,7.81241 -9.52381,13.33334 -14.28571,20 -3.80952,11.42857 -8.75875,22.53851 -11.42857,34.28572 -2.12121,9.3333 0.30474,19.53746 -2.85714,28.57143 -1.00144,2.86123 -25.52265,41.25434 -28.57143,48.57142 -1.86778,4.48266 -0.82211,9.87648 -2.85715,14.28572 -3.76513,8.15778 -11.26381,14.39583 -14.28571,22.85714 -1.92192,5.38138 0,11.42857 0,17.14286 -4.7619,5.71428 -11.20771,10.37125 -14.28571,17.14286 -1.97049,4.33507 2.12958,10.02653 0,14.28571 -3.0117,6.02339 -10.82092,8.51106 -14.28572,14.28571 -2.4985,4.16417 -0.53174,10.02247 -2.85714,14.28572 -3.56186,6.53008 -11.20771,10.37125 -14.28572,17.14286 -1.97049,4.33507 1.50585,9.76817 0,14.28571 -2.4281,7.28431 -8.80455,12.78395 -11.42857,20 -1.30188,3.58017 0,7.61905 0,11.42857 0,0.95238 0.67344,2.18371 0,2.85714 -0.67343,0.67344 -1.90476,0 -2.85714,0 -2.85714,0 -5.71429,0 -8.57143,0"
       id="path4582"
       inkscape:connector-curvature="0" />
  </g>
</svg>
