<?xml version="1.0" encoding="UTF-8" standalone="no"?>
<!-- Created with Inkscape (http://www.inkscape.org/) -->

<svg
   xmlns:dc="http://purl.org/dc/elements/1.1/"
   xmlns:cc="http://creativecommons.org/ns#"
   xmlns:rdf="http://www.w3.org/1999/02/22-rdf-syntax-ns#"
   xmlns:svg="http://www.w3.org/2000/svg"
   xmlns="http://www.w3.org/2000/svg"
   xmlns:sodipodi="http://sodipodi.sourceforge.net/DTD/sodipodi-0.dtd"
   xmlns:inkscape="http://www.inkscape.org/namespaces/inkscape"
   width="210mm"
   height="297mm"
   id="svg2"
   version="1.1"
   inkscape:version="0.48.4 r9939"
   inkscape:export-filename="/home/kumadasu/dl/digits/kumadas-handwrite/svg/8.png"
   inkscape:export-xdpi="50"
   inkscape:export-ydpi="50"
   sodipodi:docname="8.svg">
  <defs
     id="defs4" />
  <sodipodi:namedview
     id="base"
     pagecolor="#ffffff"
     bordercolor="#666666"
     borderopacity="1.0"
     inkscape:pageopacity="0.0"
     inkscape:pageshadow="2"
     inkscape:zoom="0.35"
     inkscape:cx="-765"
     inkscape:cy="540"
     inkscape:document-units="px"
     inkscape:current-layer="layer1"
     showgrid="false"
     inkscape:window-width="1920"
     inkscape:window-height="1056"
     inkscape:window-x="0"
     inkscape:window-y="24"
     inkscape:window-maximized="1" />
  <metadata
     id="metadata7">
    <rdf:RDF>
      <cc:Work
         rdf:about="">
        <dc:format>image/svg+xml</dc:format>
        <dc:type
           rdf:resource="http://purl.org/dc/dcmitype/StillImage" />
        <dc:title></dc:title>
      </cc:Work>
    </rdf:RDF>
  </metadata>
  <g
     inkscape:label="レイヤー 1"
     inkscape:groupmode="layer"
     id="layer1">
    <path
       style="fill:none;stroke:#000000;stroke-width:30;stroke-linecap:butt;stroke-linejoin:miter;stroke-opacity:1;stroke-miterlimit:4;stroke-dasharray:none"
       d="m 520,338.07647 c -22.8603,-28.57537 0.26913,-5.57972 -22.85714,-17.14286 -6.14268,-3.07134 -11.42857,-7.61905 -17.14286,-11.42857 -5.71429,-3.80952 -10.53938,-9.54186 -17.14286,-11.42857 -7.32589,-2.09312 -15.74594,2.73508 -22.85714,0 -6.28548,-2.41749 -8.15499,-11.49902 -14.28571,-14.28572 -5.2021,-2.36458 -11.77261,1.95282 -17.14286,0 -67.63796,-24.59562 44.44698,-1.58698 -34.28572,-11.42857 -1.33647,-0.16706 -1.73647,-2.11003 -2.85714,-2.85714 -4.62061,-3.08041 -9.0174,-6.81533 -14.28571,-8.57143 -3.61403,-1.20468 -7.64235,0.42069 -11.42857,0 -4.82651,-0.53628 -9.49558,-2.05879 -14.28572,-2.85714 -0.93942,-0.15657 -1.90476,0 -2.85714,0 -4.76191,0 -9.52381,0 -14.28572,0 -2.85714,0 -6.55112,-2.02031 -8.57142,0 -2.77665,2.77664 -0.67897,8.1613 -2.85715,11.42857 -4.46588,6.69883 -22.8007,19.1023 -25.71428,28.57143 -0.18598,0.60444 -2.37337,31.79739 -5.71429,37.14286 -2.85536,4.56857 -9.24051,6.50543 -11.42857,11.42857 -1.93399,4.35148 0,9.52381 0,14.28571 0,1.90476 0,3.80952 0,5.71429 0,17.14285 0,34.28571 0,51.42857 0,6.66666 0,13.33333 0,20 0,10.76545 -1.12066,21.08627 2.85714,31.42857 3.05791,7.95057 6.57984,15.85342 11.42857,22.85714 3.83326,5.53693 9.52381,9.52381 14.28572,14.28572 3.80952,3.80952 7.61905,7.61904 11.42857,11.42857 14.28571,14.28571 28.57143,28.57143 42.85714,42.85714 4.76191,4.76191 9.97449,9.11224 14.28572,14.28572 38.96852,46.76223 -9.44386,-5.09636 28.57143,37.14285 12.83136,14.25707 13.3047,10.64648 25.71428,28.57143 43.47892,62.80289 -8.82389,-11.93349 14.28572,34.28572 2.7272,5.4544 8.46701,8.95491 11.42857,14.28571 1.907,3.43261 0.0805,8.65193 2.85714,11.42857 2.77664,2.77664 9.25039,-0.41012 11.42857,2.85714 2.64143,3.96215 0,9.52381 0,14.28572 0,17.14286 0,34.28571 0,51.42857 0,17.14286 0,34.28571 0,51.42857 0,3.80952 2.69374,8.73483 0,11.42857 -3.43386,3.43386 -10.85185,-0.57671 -14.28571,2.85715 -2.69374,2.69374 1.85007,8.09844 0,11.42857 -3.27049,5.88688 -9.52381,9.52381 -14.28572,14.28571 -3.80952,3.80952 -8.06304,7.22166 -11.42857,11.42857 -0.59495,0.74369 0.92395,2.62616 0,2.85715 -3.69578,0.92394 -7.61905,0 -11.42857,0 -9.52381,0 -19.04762,0 -28.57143,0 -6.66667,0 -13.55843,-1.71776 -20,0 -8.23073,2.19486 -14.71548,8.92344 -22.85714,11.42857 -4.55133,1.40041 -9.52381,0 -14.28572,0 -10.47619,0 -20.95238,0 -31.42857,0 -12.38095,0 -24.7619,0 -37.14285,0 -7.24622,0 -21.74758,0.93388 -28.57143,-2.85715 -4.70951,-2.61639 -7.22166,-8.06304 -11.42857,-11.42857 -0.74369,-0.59495 -2.06472,0.52829 -2.85715,0 -11.72661,-7.81774 -18.60688,-15.74973 -28.57143,-25.71428 -3.80952,-3.80953 -8.81218,-6.71907 -11.42857,-11.42857 -2.35838,-4.2451 -1.05359,-9.77684 -2.85714,-14.28572 -7.0123,-17.53074 -9.7556,-8.98461 -11.42857,-25.71428 -0.56859,-5.68593 0,-11.42858 0,-17.14286 0,-13.33334 0,-26.66667 0,-40 0,-7.61905 0,-15.2381 0,-22.85714 0,-7.24622 -0.93389,-21.74758 2.85714,-28.57143 2.61639,-4.70951 8.57321,-6.86 11.42857,-11.42857 2.08119,-3.3299 -0.20914,-8.97554 2.85715,-11.42858 2.97473,-2.37979 8.73483,2.69374 11.42857,0 3.43386,-3.43385 0.1634,-10.2451 2.85714,-14.28571 3.38268,-5.07402 9.72785,-7.37714 14.28571,-11.42857 4.02666,-3.57925 6.86,-8.57321 11.42858,-11.42857 3.32989,-2.08119 9.25039,0.41012 11.42857,-2.85715 2.64143,-3.96214 -2.52381,-10.24762 0,-14.28571 8.32352,-13.31763 15.49509,-5.29706 25.71428,-11.42857 6.37832,-3.82699 11.63894,-9.28215 17.14286,-14.28572 8.96943,-8.15402 17.14286,-17.14285 25.71429,-25.71428 6.72707,-6.72708 20.82819,-19.77647 25.71428,-28.57143 1.90701,-3.43261 0.50108,-8.28716 2.85714,-11.42857 3.65893,-4.87857 11.05367,-6.2573 14.28572,-11.42857 2.01904,-3.23047 -2.97474,-9.04878 0,-11.42857 5.8909,-4.71273 16.98228,4.48643 22.85714,-2.85715 2.45303,-3.06629 -0.20915,-8.97554 2.85714,-11.42857 2.97474,-2.37979 7.94739,1.5472 11.42858,0 5.57261,-2.47672 9.60093,-7.52459 14.28571,-11.42857 1.03469,-0.86225 1.5286,-2.63572 2.85714,-2.85714 4.69712,-0.78286 9.93423,1.93399 14.28572,0 4.92314,-2.18807 7.22165,-8.06304 11.42857,-11.42857 0.74368,-0.59495 2.06471,0.52828 2.85714,0 5.07402,-3.38268 8.95492,-8.46702 14.28572,-11.42858 3.43261,-1.907 8.09868,-0.77596 11.42857,-2.85714 5.71071,-3.5692 9.52381,-9.52381 14.28571,-14.28571 4.76191,-4.76191 9.52381,-9.52381 14.28572,-14.28572 3.80952,-3.80952 8.29716,-7.0446 11.42857,-11.42857 1.75051,-2.45071 0.5054,-6.69004 2.85714,-8.57143 3.06629,-2.45303 8.97554,0.20915 11.42857,-2.85714 2.37979,-2.97474 -2.37979,-8.45383 0,-11.42857 2.45303,-3.06629 8.65193,-0.0805 11.42857,-2.85714 2.77665,-2.77665 -0.20914,-8.97554 2.85715,-11.42858 23.80952,-19.04762 2.85714,22.85715 11.42857,-11.42857 0.23098,-0.92394 1.90476,0 2.85714,0 2.85714,0 8.57143,2.85715 8.57143,0 0,-5.55328 -13.53844,-11.80221 -8.57143,-14.28571 5.45441,-2.72721 9.52381,7.61905 14.28571,11.42857"
       id="path5171"
       inkscape:connector-curvature="0" />
  </g>
</svg>
