<?xml version="1.0" encoding="UTF-8" standalone="no"?>
<!-- Created with Inkscape (http://www.inkscape.org/) -->

<svg
   xmlns:dc="http://purl.org/dc/elements/1.1/"
   xmlns:cc="http://creativecommons.org/ns#"
   xmlns:rdf="http://www.w3.org/1999/02/22-rdf-syntax-ns#"
   xmlns:svg="http://www.w3.org/2000/svg"
   xmlns="http://www.w3.org/2000/svg"
   xmlns:sodipodi="http://sodipodi.sourceforge.net/DTD/sodipodi-0.dtd"
   xmlns:inkscape="http://www.inkscape.org/namespaces/inkscape"
   width="210mm"
   height="297mm"
   id="svg2"
   version="1.1"
   inkscape:version="0.48.4 r9939"
   inkscape:export-filename="/home/kumadasu/dl/digits/kumadas-handwrite/svg/9.png"
   inkscape:export-xdpi="50"
   inkscape:export-ydpi="50"
   sodipodi:docname="9.svg">
  <defs
     id="defs4" />
  <sodipodi:namedview
     id="base"
     pagecolor="#ffffff"
     bordercolor="#666666"
     borderopacity="1.0"
     inkscape:pageopacity="0.0"
     inkscape:pageshadow="2"
     inkscape:zoom="0.35"
     inkscape:cx="-765"
     inkscape:cy="540"
     inkscape:document-units="px"
     inkscape:current-layer="layer1"
     showgrid="false"
     inkscape:window-width="1920"
     inkscape:window-height="1056"
     inkscape:window-x="0"
     inkscape:window-y="24"
     inkscape:window-maximized="1" />
  <metadata
     id="metadata7">
    <rdf:RDF>
      <cc:Work
         rdf:about="">
        <dc:format>image/svg+xml</dc:format>
        <dc:type
           rdf:resource="http://purl.org/dc/dcmitype/StillImage" />
        <dc:title></dc:title>
      </cc:Work>
    </rdf:RDF>
  </metadata>
  <g
     inkscape:label="レイヤー 1"
     inkscape:groupmode="layer"
     id="layer1">
    <path
       style="fill:none;stroke:#000000;stroke-width:30;stroke-linecap:butt;stroke-linejoin:miter;stroke-opacity:1;stroke-miterlimit:4;stroke-dasharray:none"
       d="m 540,298.07647 c -17.16209,-34.32418 7.26031,6.00226 -17.14286,-11.42857 -4.51889,-3.22779 -4.05253,-11.05793 -8.57143,-14.28572 -3.09993,-2.21424 -8.45383,2.37979 -11.42857,0 -3.06629,-2.45303 0.3382,-9.14618 -2.85714,-11.42857 -28.91223,-4.8187 -7.61747,2.14404 -25.71429,-11.42857 -0.7619,-0.57143 -1.90476,0 -2.85714,0 -3.80952,0 -7.94738,1.54719 -11.42857,0 -5.57262,-2.47672 -9.97363,-7.11648 -14.28571,-11.42857 -0.67344,-0.67344 0.93388,-2.67037 0,-2.85714 -8.24176,-1.64836 -17.47253,1.64835 -25.71429,0 -1.32071,-0.26415 -1.5286,-2.63572 -2.85714,-2.85715 -4.69712,-0.78285 -9.76818,1.50585 -14.28572,0 -4.51754,-1.50584 -6.86749,-7.2031 -11.42857,-8.57143 -5.47329,-1.64198 -11.42857,0 -17.14286,0 -7.61904,0 -15.25745,0.54284 -22.85714,0 -5.77838,-0.41274 -11.37354,-2.33266 -17.14286,-2.85714 -4.74234,-0.43112 -9.52381,0 -14.28571,0 -10.47619,0 -20.95238,0 -31.42857,0 -8.57143,0 -17.14286,0 -25.71429,0 -2.85714,0 -5.79959,-0.69296 -8.57143,0 -1.30665,0.32667 -1.90476,1.90476 -2.85714,2.85714 -3.80952,3.80953 -8.57321,6.86 -11.42857,11.42858 -2.08118,3.32989 -0.0805,8.65192 -2.85714,11.42857 -2.77665,2.77664 -8.28716,0.50108 -11.42857,2.85714 -21.37269,16.02951 -4.19092,13.58832 -14.28572,37.14286 -26.50479,61.84452 -2.28073,-31.21296 -28.57143,37.14285 0,43.03977 4.04061,-6.23423 -11.42857,28.57143 -1.93399,4.35149 0,9.52381 0,14.28572 0,4.7619 0,9.52381 0,14.28571 0,4.76191 0.52587,9.55294 0,14.28572 -1.54396,13.89566 -3.64583,9.72221 -8.57143,22.85714 C 158.84507,428.77533 160,432.06541 160,443.79075 c 0,4.76191 0,9.52381 0,14.28572 0,3.50575 -0.20553,25.09769 0,25.71428 1.50585,4.51754 6.44184,7.1694 8.57143,11.42858 1.7561,3.5122 0.0805,8.65192 2.85714,11.42857 3.62656,3.62656 10.01836,2.86938 14.28572,5.71428 4.48265,2.98844 6.50543,9.24051 11.42857,11.42857 4.35148,1.934 9.52381,0 14.28571,0 4.76191,0 9.52381,0 14.28572,0 4.7619,0 9.5886,-0.78285 14.28571,0 1.32854,0.22143 1.52381,2.66667 2.85714,2.85715 5.65686,0.80812 11.42857,0 17.14286,0 16.19048,0 32.38095,0 48.57143,0 4.7619,0 9.52381,0 14.28571,0 4.76191,0 9.63721,1.033 14.28572,0 14.41622,-3.20361 27.61369,-21.69015 40,-28.57143 3.43261,-1.90701 8.91471,0.15948 11.42857,-2.85714 3.10887,-3.73065 -0.12428,-10.45246 2.85714,-14.28572 4.21637,-5.42105 12.03812,-6.83431 17.14286,-11.42857 4.53277,-4.07949 7.76964,-9.40714 11.42857,-14.28571 4.72413,-6.29884 18.92328,-27.49471 25.71429,-34.28572 4.31208,-4.31209 9.60093,-7.52459 14.28571,-11.42857 1.03469,-0.86225 2.11003,-1.73648 2.85714,-2.85714 3.08041,-4.62062 6.31603,-9.21106 8.57143,-14.28572 1.59481,-3.58832 -0.20915,-8.97554 2.85714,-11.42857 2.97474,-2.37979 7.61905,0 11.42858,0 4.7619,-5.71428 10.15967,-10.95379 14.28571,-17.14286 1.67059,-2.50588 1.90476,-5.71428 2.85714,-8.57142 3.80953,-0.95239 8.65193,-0.0805 11.42857,-2.85715 0.68752,-0.68751 -0.68751,-10.74105 0,-11.42857 4.31209,-4.31209 8.95492,-8.46702 14.28572,-11.42857 3.43261,-1.90701 8.97554,0.20915 11.42857,-2.85714 2.37979,-2.97474 -2.37979,-8.45384 0,-11.42857 12.51757,-15.64697 11.59249,10.11723 14.28571,-11.42858 4.8588,-38.87035 -9.62445,6.76731 14.28572,-17.14285 2.69374,-2.69374 0,-15.2381 0,-11.42857 0,19.04761 0,38.09523 0,57.14285 0,4.76191 2.5238,10.24763 0,14.28572 -2.94324,4.70918 -12.14984,3.44531 -14.28572,8.57143 0,10.78577 2.07888,26.03681 -2.85714,37.14285 -2.2554,5.07466 -6.50899,9.12962 -8.57143,14.28572 -1.80355,4.50887 -0.68538,9.94219 -2.85714,14.28571 -2.7272,5.45441 -9.16375,8.62367 -11.42857,14.28572 -1.76853,4.42131 0,9.5238 0,14.28571 -0.95238,4.7619 -0.98937,9.80306 -2.85714,14.28571 -2.95321,7.0877 -8.67221,12.83346 -11.42858,20 -2.0796,5.40698 -0.45993,11.86901 -2.85714,17.14286 -2.52346,5.55161 -9.63517,8.45717 -11.42857,14.28572 -5.78594,18.80429 5.18204,21.06448 -2.85714,37.14285 -2.72721,5.45441 -8.70137,8.83131 -11.42857,14.28572 -2.17177,4.34352 -1.90477,9.52381 -2.85715,14.28571 -3.80952,8.57143 -6.77485,17.57028 -11.42857,25.71429 -3.02556,5.29473 -9.63517,8.45717 -11.42857,14.28571 -2.24065,7.28213 0.58435,15.26054 0,22.85714 -1.53479,19.95231 -3.11623,9.86867 -11.42857,28.57143 -1.59481,3.58833 -1.90476,7.61905 -2.85714,11.42857 -0.95239,3.80953 -0.0805,8.65193 -2.85715,11.42858 -25.12522,25.12522 0.45377,-27.07559 -14.28571,17.14285 -2.29364,6.88091 -6.66301,13.00246 -8.57143,20 -2.69387,9.87754 4.18114,15.8607 -2.85714,25.71429 -2.4756,3.46583 -9.31543,2.01628 -11.42857,5.71428 -2.36257,4.1345 0.39545,9.54026 0,14.28572 -0.55926,6.71109 -0.72756,13.61123 -2.85715,20 -2.69374,8.08122 -8.37066,14.90657 -11.42857,22.85714 -1.74328,4.53252 -1.90476,9.52381 -2.85714,14.28572 -2.85714,4.7619 -6.31603,9.21105 -8.57143,14.28571 -4.52589,10.18325 -1.96225,20.92286 -5.71429,31.42857 -2.86503,8.02209 -8.51748,14.85165 -11.42857,22.85714 -0.97641,2.68513 0,5.71429 0,8.57143 0,4.72421 0.23099,10.42556 -2.85714,14.28572 -1.88139,2.35173 -6.76441,0.44779 -8.57143,2.85714 -1.71428,2.28571 0.90351,5.8609 0,8.57143 -0.30117,0.90351 -2.18371,0.67343 -2.85714,0 -0.67344,-0.67344 0,-1.90476 0,-2.85714 0,-9.52381 0,-19.04762 0,-28.57143"
       id="path5192"
       inkscape:connector-curvature="0" />
  </g>
</svg>
